PathFileType	4	(X/Y/Z)	C:/Users/opensim2020/Desktop/walking_exp_matlab/subject06_walking12_static.trc	
DataRate	CameraRate	NumFrames	NumMarkers	Units	OrigDataRate	OrigDataStartFrame	OrigNumFrames	
100.00	100.00	6	48	mm	100.00	227	363	
Frame#	Time	LFHD			RFHD			LBHD			RBHD			C7			T10			CLAV			STRN			RBAK			LSHO			LUPA			LELB			LFRM			LWRA			LWRB			LFIN			RSHO			RUPA			RELB			RFRM			RWRA			RWRB			RFIN			LASI			RASI			LPSI			RPSI			LTHI			LKNE			LTIB			LANK			LHEE			LTOE			RTHI			RKNE			RTIB			RANK			RHEE			RTOE			*39			*40			*41			*42			*43			*44			*45			*46			*47			
		X1	Y1	Z1	X2	Y2	Z2	X3	Y3	Z3	X4	Y4	Z4	X5	Y5	Z5	X6	Y6	Z6	X7	Y7	Z7	X8	Y8	Z8	X9	Y9	Z9	X10	Y10	Z10	X11	Y11	Z11	X12	Y12	Z12	X13	Y13	Z13	X14	Y14	Z14	X15	Y15	Z15	X16	Y16	Z16	X17	Y17	Z17	X18	Y18	Z18	X19	Y19	Z19	X20	Y20	Z20	X21	Y21	Z21	X22	Y22	Z22	X23	Y23	Z23	X24	Y24	Z24	X25	Y25	Z25	X26	Y26	Z26	X27	Y27	Z27	X28	Y28	Z28	X29	Y29	Z29	X30	Y30	Z30	X31	Y31	Z31	X32	Y32	Z32	X33	Y33	Z33	X34	Y34	Z34	X35	Y35	Z35	X36	Y36	Z36	X37	Y37	Z37	X38	Y38	Z38	X39	Y39	Z39	X40	Y40	Z40	X41	Y41	Z41	X42	Y42	Z42	X43	Y43	Z43	X44	Y44	Z44	X45	Y45	Z45	X46	Y46	Z46	X47	Y47	Z47	X48	Y48	Z48	

227	2.260	396.99402	-656.81964	1678.39697	412.62830	-525.95288	1665.42004	528.28119	-673.20697	1619.69141	541.78851	-544.42365	1612.82910	530.80011	-613.32379	1460.24988	557.96362	-599.65192	1133.12000	417.00211	-604.42816	1389.44275	371.71173	-607.54236	1216.47754	603.33514	-530.99103	1290.14465	465.23529	-769.61902	1416.84131	445.82571	-844.94080	1216.48889	433.29230	-862.08820	1105.77283	378.34421	-892.44916	967.45544	292.55225	-857.13971	868.18768	350.47775	-894.68353	851.34424	290.27304	-900.07684	783.16406	474.18033	-448.54056	1420.09229	478.30606	-349.03607	1226.09778	441.39621	-318.88406	1113.73254	411.81607	-281.48547	1001.87811	333.33054	-280.85471	867.56836	391.60873	-247.86546	868.81274	346.73254	-228.08914	799.94727	380.66144	-700.20947	974.21204	384.35513	-481.22418	981.47443	536.81091	-675.75421	1005.14099	533.35309	-509.67236	1011.26624	482.05801	-779.37970	666.70398	500.96036	-769.30878	503.48459	545.12872	-794.45850	252.65717	543.27362	-771.49261	74.93379	583.00732	-729.46027	56.21808	395.28036	-770.47455	39.16850	478.92239	-412.41617	650.78711	493.76819	-428.17450	525.71600	562.25085	-406.82739	269.58105	575.03412	-436.26190	78.59277	612.91144	-479.40277	51.22400	418.48740	-431.80103	35.90100	504.81848	-609.38293	1713.22681																								 
228	2.270	396.87704	-656.74542	1678.39661	412.53101	-525.89636	1665.42590	528.16034	-673.14258	1619.70654	541.75116	-544.40552	1612.85718	530.75592	-613.34674	1460.24622	558.03693	-599.67035	1133.08777	416.96359	-604.43799	1389.43665	371.69513	-607.57312	1216.48022	603.32947	-530.90320	1290.04932	465.17023	-769.61768	1416.88110	445.74234	-844.92407	1216.51831	433.24478	-862.06006	1105.81030	378.21924	-892.26904	967.45673	292.53281	-857.02985	868.18396	350.44443	-894.59052	851.35321	290.24414	-899.99023	783.13147	474.11023	-448.54752	1420.08276	478.21365	-349.04776	1226.11523	441.33990	-318.85715	1113.73450	411.83029	-281.62854	1001.79120	333.36972	-280.85547	867.52325	391.62564	-247.81284	868.79492	346.81393	-228.09590	799.93842	380.69342	-700.23260	974.24402	384.35132	-481.17667	981.51575	536.82544	-675.77374	1005.16266	533.41064	-509.66580	1011.30347	482.03854	-779.35272	666.70190	500.99490	-769.33502	503.50424	545.12726	-794.40283	252.65529	543.27466	-771.49188	74.95480	582.90991	-729.58405	56.27365	395.28851	-770.45276	39.21070	478.93826	-412.43561	650.77655	493.79254	-428.09534	525.77545	562.25934	-406.84210	269.60922	575.04993	-436.23328	78.60928	612.90771	-479.42474	51.22675	418.49512	-431.80942	35.86778	504.81976	-609.42065	1713.22412																								 
229	2.280	396.76236	-656.69611	1678.40381	412.41214	-525.82288	1665.36670	528.09052	-673.12463	1619.75146	541.63062	-544.33289	1612.87512	530.67578	-613.27313	1460.29443	558.04950	-599.66241	1133.12598	416.90588	-604.39221	1389.45630	371.68744	-607.57574	1216.51270	603.30853	-530.89502	1290.12646	465.09671	-769.61078	1416.92432	445.67972	-844.92072	1216.57434	433.19205	-862.04541	1105.85022	378.18900	-892.27350	967.53357	292.49948	-856.99939	868.24805	350.39026	-894.47510	851.36377	290.19339	-899.83148	783.12543	474.01852	-448.52936	1420.06567	478.15915	-348.98480	1226.12720	441.29941	-318.85184	1113.73462	411.76871	-281.43411	1001.84363	333.40714	-280.81723	867.48053	391.64615	-247.77446	868.76239	346.86035	-228.05444	799.87506	380.68716	-700.24249	974.27118	384.45032	-481.13898	981.52081	536.88141	-675.78461	1005.16730	533.46313	-509.67963	1011.28815	482.05701	-779.34155	666.70575	501.00592	-769.29376	503.50015	545.13617	-794.40088	252.66298	543.28247	-771.48730	74.97113	582.99268	-729.44635	56.20688	395.30954	-770.45239	39.19466	478.98285	-412.44174	650.79590	493.83466	-428.20712	525.75739	562.25427	-406.85358	269.62357	575.00952	-436.27444	78.57757	612.91833	-479.42868	51.23814	418.50043	-431.76526	35.89262	504.57620	-609.26465	1713.23584																								 
230	2.290	396.61969	-656.65601	1678.40112	412.26517	-525.80341	1665.32129	527.94348	-673.04858	1619.79224	541.52283	-544.29980	1612.91260	530.60547	-613.26428	1460.31885	558.11224	-599.63782	1133.14429	416.84329	-604.47424	1389.51208	371.66098	-607.62335	1216.51721	603.27887	-530.90387	1290.17932	465.05505	-769.61658	1416.98547	445.64090	-844.93060	1216.64966	433.15909	-862.06659	1105.91089	378.06512	-892.08228	967.53741	292.46652	-856.89374	868.26166	350.35980	-894.43329	851.42236	290.11456	-899.65057	783.12341	473.93777	-448.53156	1420.06689	478.07718	-348.98102	1226.13855	441.22986	-318.82059	1113.73914	411.78528	-281.56329	1001.78070	333.46405	-280.82138	867.44873	391.69382	-247.75912	868.78076	346.92905	-228.02049	799.83862	380.68573	-700.21704	974.24994	384.46674	-481.07901	981.50677	536.87622	-675.76508	1005.13196	533.50995	-509.66852	1011.28418	482.07242	-779.34540	666.70959	501.04169	-769.28363	503.48724	545.15033	-794.40118	252.68390	543.25739	-771.48993	74.96291	582.91309	-729.57874	56.27286	395.39398	-770.53613	39.18080	479.06525	-412.42719	650.77582	493.86780	-428.10831	525.75775	562.28284	-406.85641	269.61035	575.09174	-436.25107	78.63157	612.92657	-479.45703	51.23783	418.50122	-431.79919	35.83777	504.41513	-609.17725	1713.27661																								 
231	2.300	396.47217	-656.56451	1678.36157	412.15009	-525.72662	1665.28198	527.85675	-673.01471	1619.84790	541.39191	-544.24261	1612.91736	530.53644	-613.20203	1460.32202	558.06635	-599.69635	1133.22388	416.80566	-604.40790	1389.50757	371.62024	-607.60559	1216.51575	603.24078	-530.87622	1290.23035	464.98911	-769.58215	1417.03455	445.59497	-844.89893	1216.67908	433.11099	-862.03149	1105.93335	378.00589	-892.03638	967.57397	292.43887	-856.82568	868.30103	350.29385	-894.38055	851.46820	290.09113	-899.64661	783.23615	473.85117	-448.54156	1420.05151	477.97842	-348.98572	1226.13025	441.20340	-318.83862	1113.75159	411.75723	-281.38177	1001.84656	333.51450	-280.81558	867.40784	391.76059	-247.70972	868.77295	346.98544	-227.98463	799.82422	380.69461	-700.20099	974.23779	384.56799	-481.03717	981.50903	536.89191	-675.76874	1005.13940	533.56281	-509.69751	1011.28009	482.11371	-779.35974	666.70892	501.07068	-769.30035	503.51636	545.15472	-794.39435	252.68074	543.28107	-771.48828	74.98263	582.88348	-729.57605	56.24911	395.27945	-770.48370	39.18867	479.15109	-412.43689	650.77966	493.89603	-428.09201	525.77222	562.33795	-406.88663	269.58383	575.05481	-436.29520	78.58425	612.90411	-479.45215	51.23090	418.50925	-431.76837	35.88100	504.35144	-609.20850	1713.27795																								 
232	2.310	396.33627	-656.53638	1678.34558	411.97534	-525.71777	1665.25708	527.68127	-672.93048	1619.88245	541.29938	-544.16229	1612.94788	530.50854	-613.24298	1460.37354	558.10059	-599.67072	1133.17456	416.76443	-604.40222	1389.50720	371.60950	-607.61121	1216.51111	603.20636	-530.84760	1290.23059	464.94534	-769.57709	1417.07288	445.54633	-844.91876	1216.74207	433.09045	-862.00775	1105.97388	377.95459	-891.97394	967.63049	292.38544	-856.75140	868.36456	350.26089	-894.33002	851.53265	290.04102	-899.57910	783.26453	473.77396	-448.52911	1420.05334	477.91565	-348.91418	1226.13904	441.19312	-318.82416	1113.72937	411.80750	-281.55063	1001.73724	333.57797	-280.83487	867.34241	391.80795	-247.71118	868.72864	347.08380	-228.04240	799.75781	380.72235	-700.22070	974.24396	384.57706	-480.99142	981.51569	536.94214	-675.81323	1005.15222	533.57562	-509.71051	1011.26117	482.16577	-779.32166	666.68500	501.09290	-769.26538	503.49692	545.18152	-794.35394	252.66220	543.29346	-771.46118	74.95435	582.90765	-729.58026	56.27457	395.30099	-770.44897	39.22591	479.19040	-412.45605	650.77673	493.98682	-428.09644	525.77173	562.37146	-406.87952	269.60254	575.08398	-436.25977	78.61134	612.91589	-479.42960	51.20781	418.48535	-431.81039	35.89185	504.19220	-609.15979	1713.31030																								 
